<?xml version="1.0" standalone="no"?>
<!DOCTYPE svg PUBLIC "-//W3C//DTD SVG 20010904//EN"
 "http://www.w3.org/TR/2001/REC-SVG-20010904/DTD/svg10.dtd">
<svg version="1.0" xmlns="http://www.w3.org/2000/svg"
 width="906.000000pt" height="850.000000pt" viewBox="0 0 906.000000 850.000000"
 preserveAspectRatio="xMidYMid meet">

<g transform="translate(0.000000,850.000000) scale(0.100000,-0.100000)"
fill="#000000" stroke="none">
<path d="M4317 6732 c-15 -9 -30 -26 -35 -37 -7 -19 -6 -1134 1 -1141 4 -4
157 -34 175 -34 9 0 12 124 12 586 l0 586 -29 29 c-34 34 -80 38 -124 11z"/>
<path d="M3836 6529 c-222 -44 -387 -258 -361 -466 22 -177 122 -303 288 -360
65 -23 82 -25 182 -20 74 3 136 13 190 29 l80 24 3 127 c1 70 1 127 -2 127 -2
0 -57 -18 -123 -40 -142 -48 -220 -53 -291 -19 -127 62 -138 244 -19 330 40
29 45 30 112 24 83 -8 155 14 229 71 26 19 54 34 64 33 32 -3 36 1 16 17 -13
11 -15 17 -6 20 23 10 12 26 -14 20 -17 -5 -34 0 -54 14 -84 60 -201 87 -294
69z m182 -103 c7 -35 -44 -49 -73 -20 -12 13 -13 19 -4 31 18 20 73 13 77 -11z"/>
<path d="M4593 6088 l-63 -10 0 -124 0 -124 43 7 c61 11 157 9 197 -5 54 -18
106 -74 119 -129 24 -94 -23 -189 -116 -235 -66 -32 -205 -30 -408 5 -273 48
-341 46 -461 -13 -75 -37 -126 -91 -167 -179 -28 -59 -32 -76 -32 -156 0 -104
18 -156 81 -225 61 -68 122 -93 234 -98 85 -4 112 0 237 32 78 20 164 36 193
36 63 0 124 -29 145 -70 47 -92 -21 -197 -167 -257 -163 -66 -225 -113 -253
-192 -8 -24 -13 -46 -10 -49 3 -3 20 8 38 25 44 43 113 75 240 112 142 41 194
69 251 132 133 148 79 381 -103 444 -87 30 -162 30 -341 -3 -177 -32 -231 -32
-283 2 -37 25 -47 46 -47 99 0 55 31 103 85 131 55 29 167 27 365 -7 85 -14
193 -29 240 -33 223 -16 400 80 488 263 35 75 37 82 37 183 0 123 -15 174 -79
266 -96 137 -274 203 -463 172z"/>
<path d="M4280 5130 c0 -45 3 -58 13 -54 7 2 49 8 92 12 l80 7 3 32 c3 27 -1
33 -20 37 -29 6 -152 26 -161 26 -4 0 -7 -27 -7 -60z"/>
<path d="M4375 4805 c-5 -2 -29 -9 -52 -15 l-43 -11 0 -122 0 -123 95 45 95
45 0 93 0 93 -42 -1 c-24 0 -47 -2 -53 -4z"/>
<path d="M4380 4361 c-97 -31 -100 -34 -100 -102 0 -54 3 -64 29 -90 20 -20
39 -29 61 -29 72 0 100 47 100 165 0 86 2 85 -90 56z"/>
<path d="M1730 3265 l0 -505 255 0 255 0 0 95 0 95 -150 0 -150 0 -2 218 c-2
119 -3 260 -4 312 -1 52 -2 139 -2 193 l-2 97 -100 0 -100 0 0 -505z"/>
<path d="M2307 3763 c-4 -3 -7 -231 -7 -505 l0 -498 260 0 260 0 0 95 0 95
-155 0 -155 0 0 109 c0 94 2 110 17 115 10 4 65 6 123 5 l105 -2 3 81 3 81
-123 3 -123 3 -3 117 c-3 140 -15 131 166 125 l122 -5 0 94 0 94 -243 0 c-134
0 -247 -3 -250 -7z"/>
<path d="M2850 3758 c0 -12 42 -175 85 -328 13 -47 56 -204 95 -350 40 -146
76 -277 82 -292 l10 -28 104 0 103 0 11 43 c7 23 22 80 35 127 13 47 47 171
75 275 28 105 67 244 85 310 36 127 65 239 65 249 0 4 -46 5 -102 4 l-102 -3
-36 -155 c-88 -381 -136 -570 -142 -570 -5 0 -8 8 -8 17 0 10 -37 174 -82 365
l-83 348 -97 0 c-68 0 -98 -4 -98 -12z"/>
<path d="M3667 3763 c-4 -3 -7 -231 -7 -505 l0 -498 255 0 255 0 0 95 0 95
-150 0 -151 0 3 111 3 112 120 2 120 1 3 82 3 81 -123 3 -123 3 -3 117 -3 117
138 3 138 3 3 93 3 92 -239 0 c-131 0 -242 -3 -245 -7z"/>
<path d="M4270 3265 l0 -505 248 0 c137 0 251 2 253 4 2 2 3 45 1 95 l-3 90
-147 3 -147 3 -3 408 -2 407 -100 0 -100 0 0 -505z"/>
<path d="M4850 3265 l0 -505 85 0 85 0 0 343 c0 191 4 335 9 327 5 -8 46 -133
92 -277 l83 -263 73 0 72 0 88 268 88 267 3 -332 2 -333 91 0 91 0 -7 298 c-4
163 -10 389 -14 502 l-6 205 -115 0 -114 0 -86 -277 c-47 -153 -88 -279 -91
-282 -2 -2 -43 122 -90 277 l-86 282 -127 3 -126 3 0 -506z"/>
<path d="M5830 3265 l0 -505 255 0 255 0 0 95 0 95 -150 0 -150 0 0 115 0 115
123 -2 122 -3 3 83 3 82 -126 0 -125 0 0 120 0 119 143 3 142 3 3 93 3 92
-251 0 -250 0 0 -505z"/>
<path d="M6440 3767 c-3 -3 -4 -231 -2 -506 l2 -501 155 0 c235 0 297 20 392
124 87 95 132 266 120 450 -15 216 -93 352 -233 406 -52 21 -79 24 -244 28
-102 2 -187 1 -190 -1z m350 -202 c71 -36 102 -115 108 -268 5 -142 -9 -222
-50 -278 -36 -49 -79 -69 -153 -69 l-55 0 0 320 0 321 63 -7 c34 -4 73 -12 87
-19z"/>
</g>
</svg>
